<?xml version="1.0" encoding="utf-8"?><svg viewBox="0 0 171 30" xmlns="http://www.w3.org/2000/svg" xmlns:xlink="http://www.w3.org/1999/xlink"><style>:root>svg{display:none}:root>svg:target{display:block}</style><svg fill="none" viewBox="0 0 7 4" id="accordion_arrow" xmlns="http://www.w3.org/2000/svg"><path d="M3.914 3.835a.602.602 0 01-.828 0L.22 1.185C-.223.776.048 0 .633 0h5.734c.585 0 .856.776.413 1.185l-2.866 2.65z" fill="#969696"/></svg><svg fill="none" viewBox="0 0 7 4" id="accordion_arrow_purp" xmlns="http://www.w3.org/2000/svg"><path d="M3.914.165a.602.602 0 00-.828 0L.22 2.815C-.223 3.225.048 4 .633 4h5.734c.585 0 .856-.776.413-1.185L3.914.165z" fill="#9A76FF"/></svg><svg fill="none" viewBox="0 0 7 4" id="arr_down" xmlns="http://www.w3.org/2000/svg"><path d="M3.914 3.835a.602.602 0 01-.828 0L.22 1.185C-.223.776.048 0 .633 0h5.734c.585 0 .856.776.413 1.185l-2.866 2.65z" fill="#fff"/></svg><svg fill="none" viewBox="0 0 7 4" id="arrow_down_purple" xmlns="http://www.w3.org/2000/svg"><path d="M3.914 3.835a.602.602 0 01-.828 0L.22 1.185C-.223.776.048 0 .633 0h5.734c.585 0 .856.776.413 1.185l-2.866 2.65z" fill="#8159F4"/></svg><svg fill="none" viewBox="0 0 20 16" id="arrow_left" xmlns="http://www.w3.org/2000/svg"><path d="M1.185 10.696l5.248 4.932c.254.238.598.372.957.372.358 0 .703-.134.956-.372.254-.239.396-.562.396-.899 0-.337-.142-.66-.396-.899l-4.81-4.517h15.111c.359 0 .703-.134.957-.372.254-.239.396-.562.396-.9 0-.336-.142-.66-.396-.898a1.398 1.398 0 00-.957-.372H3.454L8.346 2.17c.254-.239.396-.562.396-.899 0-.337-.142-.66-.396-.899A1.398 1.398 0 007.39 0c-.359 0-.703.134-.957.372l-5.25 4.932A3.709 3.709 0 000 8c0 1.01.426 1.98 1.185 2.696z" fill="#9A76FF"/></svg><svg fill="none" viewBox="0 0 20 16" id="arrow_right" xmlns="http://www.w3.org/2000/svg"><path d="M18.815 10.696l-5.248 4.932a1.398 1.398 0 01-.957.372c-.358 0-.703-.134-.956-.372a1.234 1.234 0 01-.396-.899c0-.337.142-.66.396-.899l4.81-4.517H1.352c-.359 0-.703-.134-.957-.372A1.234 1.234 0 010 8.04c0-.336.143-.66.396-.898.254-.238.598-.372.957-.372h15.193L11.654 2.17a1.234 1.234 0 01-.396-.899c0-.337.142-.66.396-.899.253-.238.598-.372.956-.372.359 0 .703.134.957.372l5.25 4.932A3.709 3.709 0 0120 8a3.71 3.71 0 01-1.185 2.696z" fill="#9A76FF"/></svg><svg fill="none" viewBox="0 0 18 16" id="arrows" xmlns="http://www.w3.org/2000/svg"><path d="M.165 4.473a.761.761 0 010-.946L2.815.251C3.225-.255 4 .055 4 .724v6.552c0 .669-.776.979-1.185.473L.165 4.473z" fill="#9A76FF"/><path d="M2 4a1 1 0 011-1h14a1 1 0 110 2H3a1 1 0 01-1-1zM17.835 12.473a.762.762 0 000-.946l-2.65-3.276C14.776 7.745 14 8.055 14 8.724v6.552c0 .669.776.979 1.185.473l2.65-3.276z" fill="#9A76FF"/><path d="M16 12a1 1 0 00-1-1H1a1 1 0 100 2h14a1 1 0 001-1z" fill="#9A76FF"/></svg><svg fill="none" viewBox="0 0 18 22" id="bell" xmlns="http://www.w3.org/2000/svg"><path d="M17.441 15.504a6.187 6.187 0 01-2.141-4.698V8.25c0-3.226-2.353-5.896-5.4-6.343v-.99A.908.908 0 009 0c-.497 0-.9.41-.9.917v.99c-3.048.447-5.4 3.117-5.4 6.343v2.556c0 1.814-.78 3.526-2.15 4.705-.35.305-.55.749-.55 1.218 0 .885.706 1.604 1.575 1.604h14.85c.869 0 1.575-.72 1.575-1.604 0-.47-.2-.913-.559-1.225zM9 22c1.63 0 2.993-1.183 3.306-2.75H5.693C6.007 20.817 7.37 22 9 22z" fill="#9A76FF"/></svg><svg fill="none" viewBox="0 0 5 10" id="bredcrumb" xmlns="http://www.w3.org/2000/svg"><path d="M3.401 5.506a.725.725 0 000-1.012L.2 1.213A.725.725 0 01.207.21a.69.69 0 01.98-.01l3.2 3.282C4.779 3.885 5 4.431 5 5c0 .57-.22 1.115-.613 1.518L1.184 9.799a.69.69 0 01-.98-.009.724.724 0 01-.008-1.003l3.205-3.281z" fill="#8159F4"/></svg><svg fill="none" viewBox="0 0 21 18" id="button_send" xmlns="http://www.w3.org/2000/svg"><path d="M19.619 7.14L2.787.154a2.004 2.004 0 00-2.09.338 2.004 2.004 0 00-.634 2.02L1.562 8.39h7.335a.611.611 0 010 1.222H1.562L.063 15.486c-.19.744.053 1.518.634 2.02a2.003 2.003 0 002.09.338l16.832-6.983A1.983 1.983 0 0020.86 9c0-.83-.476-1.543-1.242-1.86z" fill="#9A76FF"/></svg><svg fill="none" viewBox="0 0 14 14" id="cancel" xmlns="http://www.w3.org/2000/svg"><path d="M11.952 2.048a7.011 7.011 0 00-9.904 0 7.011 7.011 0 000 9.904 7.01 7.01 0 009.904 0 7.011 7.011 0 000-9.904zm-2.19 7.714a.539.539 0 01-.762 0l-2-2-2.095 2.095a.539.539 0 11-.762-.762L6.238 7l-2-2A.539.539 0 115 4.238l2 2 1.905-1.904a.539.539 0 11.761.761L7.762 7l2 2c.21.21.21.551 0 .762z" fill="#9A76FF"/></svg><svg fill="none" viewBox="0 0 20 16" id="cart" xmlns="http://www.w3.org/2000/svg"><path d="M19.643 4.727H.357A.36.36 0 000 5.091v.364c0 .2.16.363.357.363h19.286A.36.36 0 0020 5.455V5.09a.36.36 0 00-.357-.364zM6.36.935L4.686 4h.818l1.48-2.712c.189-.346.547-.56.936-.56h4.16c.389 0 .747.214.936.56L14.496 4h.818L13.64.935A1.78 1.78 0 0012.079 0H7.92a1.78 1.78 0 00-1.56.935zM17.254 15.7l1.605-9.155H1.141L2.748 15.7c.03.174.178.3.351.3h13.803a.36.36 0 00.352-.3zm-2.74-8.427h2.432a.36.36 0 01.358.363c0 .201-.16.364-.358.364h-2.432a.36.36 0 01-.357-.364c0-.2.16-.363.357-.363zm-.125 1.454h2.361a.36.36 0 01.357.364c0 .2-.16.364-.357.364h-2.36a.36.36 0 01-.358-.364c0-.2.16-.364.357-.364zm-3.71-1.454h2.535a.36.36 0 01.357.363c0 .201-.16.364-.357.364H10.68a.36.36 0 01-.358-.364c0-.2.16-.363.358-.363zm-3.893 0H9.32a.36.36 0 01.358.363c0 .201-.16.364-.358.364H6.786a.36.36 0 01-.357-.364c0-.2.16-.363.357-.363zm-4.09.363c0-.2.16-.363.358-.363h2.432a.36.36 0 01.357.363c0 .201-.16.364-.357.364H3.054a.36.36 0 01-.358-.364zm.197 1.455c0-.2.16-.364.357-.364h2.36a.36.36 0 01.358.364c0 .2-.16.364-.357.364H3.25a.36.36 0 01-.357-.364zm.196 1.455c0-.201.16-.364.357-.364H5.74a.36.36 0 01.357.364c0 .2-.16.363-.357.363H3.446a.36.36 0 01-.357-.364zM3.286 12c0-.2.16-.364.357-.364h2.225a.36.36 0 01.357.364c0 .2-.16.364-.357.364H3.643A.36.36 0 013.286 12zm.196 1.454c0-.2.16-.363.357-.363h2.154a.36.36 0 01.357.364c0 .2-.16.363-.357.363H3.839a.36.36 0 01-.357-.364zm2.64 1.819H4.035a.36.36 0 01-.357-.364c0-.2.16-.364.357-.364H6.12a.36.36 0 01.358.364c0 .2-.16.364-.358.364zm.75-6.546h2.466a.36.36 0 01.357.364c0 .2-.16.364-.357.364H6.873a.36.36 0 01-.357-.364c0-.2.16-.364.357-.364H6.87zm.09 1.455h2.392a.36.36 0 01.357.364c0 .2-.16.363-.357.363h-2.39a.36.36 0 01-.357-.364c0-.2.16-.363.357-.363h-.003zm.086 1.454H9.37a.36.36 0 01.357.364c0 .2-.16.364-.357.364H7.048A.36.36 0 016.691 12c0-.2.16-.364.357-.364zm.087 1.455h2.25a.36.36 0 01.357.364c0 .2-.16.363-.357.363h-2.25a.36.36 0 01-.357-.364c0-.2.16-.363.357-.363zm2.267 2.182H7.224a.36.36 0 01-.358-.364c0-.2.16-.364.358-.364h2.178a.36.36 0 01.357.364c0 .2-.16.364-.357.364zm3.373 0h-2.179a.36.36 0 01-.357-.364c0-.2.16-.364.357-.364h2.179a.36.36 0 01.357.364c0 .2-.16.364-.357.364zm.087-1.455h-2.25a.36.36 0 01-.357-.364c0-.2.16-.363.357-.363h2.25a.36.36 0 01.357.364c0 .2-.16.363-.357.363zm.087-1.454h-2.322A.36.36 0 0110.27 12c0-.2.16-.364.357-.364h2.322a.36.36 0 01.357.364c0 .2-.16.364-.357.364zm.087-1.455h-2.393a.36.36 0 01-.357-.364c0-.2.16-.363.357-.363h2.393a.36.36 0 01.357.364c0 .2-.16.363-.357.363zM10.66 9.455a.36.36 0 01-.357-.364c0-.2.16-.364.357-.364h2.467a.36.36 0 01.357.364c0 .2-.16.364-.357.364H10.66zm5.304 5.818H13.88a.36.36 0 01-.358-.364c0-.2.16-.364.358-.364h2.085a.36.36 0 01.357.364c0 .2-.16.364-.357.364zm.197-1.455h-2.154a.36.36 0 01-.357-.364c0-.2.16-.363.357-.363h2.154a.36.36 0 01.357.364c0 .2-.16.363-.357.363zm.196-1.454h-2.225a.36.36 0 01-.357-.364c0-.2.16-.364.357-.364h2.225a.36.36 0 01.357.364c0 .2-.16.364-.357.364zm.197-1.455H14.26a.36.36 0 01-.357-.364c0-.2.16-.363.357-.363h2.293a.36.36 0 01.357.364c0 .2-.16.363-.357.363z" fill="#9A76FF"/></svg><svg fill="none" viewBox="0 0 21 19" id="chat" xmlns="http://www.w3.org/2000/svg"><path d="M10.094 0C4.528 0 0 3.995 0 8.906c0 2.075.821 4.085 2.315 5.679a3.61 3.61 0 01-.954 3.401.594.594 0 00.42 1.014 6.546 6.546 0 004.535-1.832c1.2.428 2.468.645 3.778.645 5.566 0 10.173-3.996 10.173-8.907C20.267 3.996 15.66 0 10.094 0zM5.423 10.688a1.783 1.783 0 01-1.781-1.782c0-.982.799-1.781 1.78-1.781.983 0 1.782.799 1.782 1.781 0 .982-.799 1.781-1.781 1.781zm4.75 0a1.783 1.783 0 01-1.781-1.782c0-.982.799-1.781 1.78-1.781.983 0 1.782.799 1.782 1.781 0 .982-.799 1.781-1.781 1.781zm4.75 0a1.783 1.783 0 01-1.781-1.782c0-.982.799-1.781 1.78-1.781.983 0 1.782.799 1.782 1.781 0 .982-.799 1.781-1.781 1.781z" fill="#fff"/></svg><svg fill="none" viewBox="0 0 21 19" id="chat_purple" xmlns="http://www.w3.org/2000/svg"><path d="M10.094 0C4.528 0 0 3.995 0 8.906c0 2.075.821 4.085 2.315 5.679a3.61 3.61 0 01-.954 3.401.594.594 0 00.42 1.014 6.546 6.546 0 004.535-1.832c1.2.428 2.468.645 3.778.645 5.566 0 10.173-3.996 10.173-8.907C20.267 3.996 15.66 0 10.094 0zM5.423 10.688a1.783 1.783 0 01-1.781-1.782c0-.982.799-1.781 1.78-1.781.983 0 1.782.799 1.782 1.781 0 .982-.799 1.781-1.781 1.781zm4.75 0a1.783 1.783 0 01-1.781-1.782c0-.982.799-1.781 1.78-1.781.983 0 1.782.799 1.782 1.781 0 .982-.799 1.781-1.781 1.781zm4.75 0a1.783 1.783 0 01-1.781-1.782c0-.982.799-1.781 1.78-1.781.983 0 1.782.799 1.782 1.781 0 .982-.799 1.781-1.781 1.781z" fill="#9A76FF"/></svg><svg fill="none" viewBox="0 0 30 30" id="check" xmlns="http://www.w3.org/2000/svg"><path fill-rule="evenodd" clip-rule="evenodd" d="M15 28c7.18 0 13-5.82 13-13S22.18 2 15 2 2 7.82 2 15s5.82 13 13 13zm0 2c8.284 0 15-6.716 15-15 0-8.284-6.716-15-15-15C6.716 0 0 6.716 0 15c0 8.284 6.716 15 15 15z" fill="url(#aopaint0_linear)"/><path fill-rule="evenodd" clip-rule="evenodd" d="M19.86 11.335c.453.446.453 1.17 0 1.616l-5.792 5.714a1.17 1.17 0 01-1.639 0l-3.09-3.047a1.132 1.132 0 010-1.617 1.17 1.17 0 011.639 0l2.27 2.24 4.974-4.906a1.17 1.17 0 011.639 0z" fill="url(#aopaint1_linear)"/><defs><linearGradient id="aopaint0_linear" x1="30" y1="0" x2="0" y2="30" gradientUnits="userSpaceOnUse"><stop stop-color="#8159F4"/><stop offset="1" stop-color="#9A76FF"/></linearGradient><linearGradient id="aopaint1_linear" x1="30" y1="0" x2="0" y2="30" gradientUnits="userSpaceOnUse"><stop stop-color="#8159F4"/><stop offset="1" stop-color="#9A76FF"/></linearGradient></defs></svg><svg fill="none" viewBox="0 0 30 30" id="check_circle" xmlns="http://www.w3.org/2000/svg"><path fill-rule="evenodd" clip-rule="evenodd" d="M15 28c7.18 0 13-5.82 13-13S22.18 2 15 2 2 7.82 2 15s5.82 13 13 13zm0 2c8.284 0 15-6.716 15-15 0-8.284-6.716-15-15-15C6.716 0 0 6.716 0 15c0 8.284 6.716 15 15 15z" fill="url(#appaint0_linear)"/><path fill-rule="evenodd" clip-rule="evenodd" d="M19.86 11.335c.453.446.453 1.17 0 1.616l-5.792 5.714a1.17 1.17 0 01-1.639 0l-3.09-3.047a1.132 1.132 0 010-1.617 1.17 1.17 0 011.639 0l2.27 2.24 4.974-4.906a1.17 1.17 0 011.639 0z" fill="url(#appaint1_linear)"/><defs><linearGradient id="appaint0_linear" x1="30" y1="0" x2="0" y2="30" gradientUnits="userSpaceOnUse"><stop stop-color="#8159F4"/><stop offset="1" stop-color="#9A76FF"/></linearGradient><linearGradient id="appaint1_linear" x1="30" y1="0" x2="0" y2="30" gradientUnits="userSpaceOnUse"><stop stop-color="#8159F4"/><stop offset="1" stop-color="#9A76FF"/></linearGradient></defs></svg><svg fill="none" viewBox="0 0 20 20" id="check_graey" xmlns="http://www.w3.org/2000/svg"><path d="M10 0C4.486 0 0 4.486 0 10s4.486 10 10 10 10-4.486 10-10S15.514 0 10 0zm5.575 6.665l-6.154 6.923a.768.768 0 01-1.056.09L4.52 10.6a.77.77 0 01.961-1.202l3.276 2.62 5.669-6.377a.769.769 0 111.15 1.023z" fill="#969696"/></svg><svg fill="none" viewBox="0 0 9 7" id="check_white" xmlns="http://www.w3.org/2000/svg"><path fill-rule="evenodd" clip-rule="evenodd" d="M8.727.293c.364.39.364 1.024 0 1.414l-4.655 5a.886.886 0 01-1.317 0L.273 4.04a1.053 1.053 0 010-1.414.886.886 0 011.316 0l1.825 1.96L7.41.293a.886.886 0 011.316 0z" fill="#fff"/></svg><svg fill="none" viewBox="0 0 20 20" id="clock" xmlns="http://www.w3.org/2000/svg"><path fill-rule="evenodd" clip-rule="evenodd" d="M10.345 8.67V7.585a.333.333 0 00-.1-.24.337.337 0 00-.245-.105.345.345 0 00-.345.345V8.67c.225-.066.465-.066.69 0z" fill="#9A76FF"/><path d="M10 10.69a.69.69 0 100-1.38.69.69 0 000 1.38z" fill="#9A76FF"/><path d="M14.483 9.655h.328a4.8 4.8 0 00-1.166-2.812l-.231.23a.345.345 0 11-.488-.487l.23-.23a4.8 4.8 0 00-2.811-1.167v.328a.345.345 0 11-.69 0v-.328a4.8 4.8 0 00-2.812 1.166l.23.231a.345.345 0 11-.487.488l-.231-.23a4.8 4.8 0 00-1.166 2.811h.328a.345.345 0 010 .69h-.328a4.8 4.8 0 001.166 2.812l.231-.23a.345.345 0 01.488.487l-.231.231a4.8 4.8 0 002.812 1.166v-.328a.345.345 0 01.69 0v.328a4.8 4.8 0 002.812-1.166l-.23-.231a.345.345 0 01.487-.488l.23.231a4.8 4.8 0 001.167-2.812h-.328a.345.345 0 110-.69zm-1.738 1.13a.345.345 0 01-.426.236l-1.135-.325a1.374 1.374 0 11-2.219-1.599V7.586a1.035 1.035 0 112.07 0v1.511c.22.25.343.57.344.903 0 .011-.003.022-.003.034l1.133.325a.345.345 0 01.236.426z" fill="#9A76FF"/><path d="M19.951 9.062a.616.616 0 00-.517-.53l-1.33-.218a8.226 8.226 0 00-1.181-2.85l.784-1.096a.62.62 0 00-.006-.744 8.197 8.197 0 00-.631-.694 9.308 9.308 0 00-.694-.631.62.62 0 00-.744-.006l-1.096.784a8.226 8.226 0 00-2.85-1.182L11.47.567a.616.616 0 00-.531-.517 8.817 8.817 0 00-1.876 0 .616.616 0 00-.53.517l-.218 1.328a8.226 8.226 0 00-2.85 1.182l-1.096-.784a.62.62 0 00-.744.006c-.242.199-.473.41-.694.631-.223.22-.434.45-.631.694a.62.62 0 00-.006.744l.784 1.097a8.226 8.226 0 00-1.182 2.849L.567 8.53a.616.616 0 00-.517.531 8.817 8.817 0 000 1.876.623.623 0 00.517.53l1.328.218a8.226 8.226 0 001.182 2.85l-.784 1.096a.619.619 0 00.006.744c.198.242.41.473.631.694.225.225.456.431.694.631a.62.62 0 00.744.007l1.096-.785c.867.57 1.834.97 2.85 1.182l.217 1.328a.616.616 0 00.531.517 8.813 8.813 0 001.876 0 .616.616 0 00.53-.517l.218-1.328a8.226 8.226 0 002.85-1.182l1.096.784a.62.62 0 00.744-.006c.237-.2.469-.406.694-.631.222-.22.433-.452.631-.694a.619.619 0 00.006-.744l-.784-1.096a8.228 8.228 0 001.182-2.85l1.328-.217c.27-.044.48-.26.517-.531a8.814 8.814 0 000-1.876h.001zM10 16.898A6.897 6.897 0 1116.897 10 6.905 6.905 0 0110 16.898z" fill="#9A76FF"/><path d="M10 3.792A6.208 6.208 0 1016.208 10 6.215 6.215 0 0010 3.792zm0 11.726A5.518 5.518 0 1115.518 10 5.525 5.525 0 0110 15.518z" fill="#9A76FF"/></svg><svg fill="none" viewBox="0 0 171 27" id="coinhub_copy" xmlns="http://www.w3.org/2000/svg"><path d="M.9 13.652c0-2.304.384-4.344 1.152-6.12.768-1.776 1.812-3.18 3.132-4.212a14.268 14.268 0 014.392-2.304c1.608-.528 3.312-.792 5.112-.792 2.712 0 5.184.504 7.416 1.512v7.416C20.448 8 18.468 7.424 16.164 7.424c-1.92 0-3.528.516-4.824 1.548-1.272 1.008-1.908 2.568-1.908 4.68 0 1.848.636 3.252 1.908 4.212 1.272.936 2.82 1.404 4.644 1.404 2.856 0 4.956-.6 6.3-1.8v7.596c-2.232 1.008-4.692 1.512-7.38 1.512-1.848 0-3.588-.252-5.22-.756a14.98 14.98 0 01-4.464-2.232C3.9 22.58 2.844 21.224 2.052 19.52 1.284 17.816.9 15.86.9 13.652zm26.766 9.216c-2.376-2.496-3.564-5.652-3.564-9.468s1.188-6.96 3.564-9.432C30.042 1.472 33.402.224 37.746.224s7.704 1.248 10.08 3.744C50.202 6.44 51.39 9.584 51.39 13.4c0 3.816-1.188 6.972-3.564 9.468-2.376 2.472-5.736 3.708-10.08 3.708s-7.704-1.236-10.08-3.708zM41.49 17.54c.912-1.008 1.368-2.388 1.368-4.14 0-1.752-.456-3.132-1.368-4.14-.888-1.008-2.136-1.512-3.744-1.512s-2.868.504-3.78 1.512c-.888 1.008-1.332 2.388-1.332 4.14 0 1.752.444 3.132 1.332 4.14.912 1.008 2.172 1.512 3.78 1.512 1.608 0 2.856-.504 3.744-1.512zM54.15.8h8.316V26H54.15V.8zM74.595 26H66.28V.8h7.02l8.532 11.844c-.144-1.2-.216-2.64-.216-4.32V.8h8.316V26h-7.02L74.38 14.192c.144 1.2.216 2.616.216 4.248V26z" fill="#8159F4"/><path d="M108.892.8h8.28V26h-8.28v-8.964h-6.84V26h-8.316V.8h8.316v8.964h6.84V.8zm26.922 0h8.28v15.408c0 1.872-.324 3.504-.972 4.896-.648 1.368-1.536 2.448-2.664 3.24a12.102 12.102 0 01-3.708 1.692c-1.32.36-2.772.54-4.356.54s-3.048-.18-4.392-.54a12.169 12.169 0 01-3.672-1.692c-1.128-.792-2.016-1.872-2.664-3.24-.648-1.392-.972-3.024-.972-4.896V.8h8.316v15.012c0 2.208 1.128 3.312 3.384 3.312 2.28 0 3.42-1.104 3.42-3.312V.8zm11.817 0h12.6c5.952 0 8.928 2.124 8.928 6.372 0 2.688-1.2 4.5-3.6 5.436 3.072.936 4.608 3 4.608 6.192 0 4.8-3.42 7.2-10.26 7.2h-12.276V.8zm11.844 19.08c1.608 0 2.412-.684 2.412-2.052 0-1.368-.804-2.052-2.412-2.052h-3.528v4.104h3.528zm1.692-11.088c0-.552-.18-.996-.54-1.332-.36-.36-.876-.54-1.548-.54h-3.132v3.708l3.132.036c.672 0 1.188-.18 1.548-.54.36-.36.54-.804.54-1.332z" fill="#fff"/></svg><svg fill="none" viewBox="0 0 20 20" id="crost" xmlns="http://www.w3.org/2000/svg"><path d="M17.075 2.926c-3.901-3.901-10.248-3.901-14.15 0-3.9 3.9-3.9 10.247 0 14.148 3.901 3.901 10.249 3.901 14.15 0 3.9-3.9 3.9-10.248 0-14.148zm-3.13 11.02c-.3.3-.787.3-1.088 0L10 11.087l-2.993 2.993a.77.77 0 11-1.088-1.088L8.912 10 6.055 7.143a.77.77 0 111.088-1.088L10 8.912l2.72-2.721a.77.77 0 111.09 1.088L11.087 10l2.857 2.858c.3.3.3.788 0 1.088z" fill="#969696"/></svg><svg fill="none" viewBox="0 0 20 15" id="img" xmlns="http://www.w3.org/2000/svg"><path d="M17.857 0H2.143C.959 0 0 .96 0 2.143v10c0 1.183.96 2.143 2.143 2.143h15.714c1.184 0 2.143-.96 2.143-2.143v-10C20 .959 19.04 0 17.857 0zm.714 8.276L14.076 3.78a.714.714 0 00-1.01 0L7.143 9.704 4.79 7.352a.714.714 0 00-1.01 0L1.429 9.704V2.143c0-.395.32-.714.714-.714h15.714c.395 0 .714.32.714.714v6.133z" fill="#9A76FF"/><path d="M6.429 7.143a2.143 2.143 0 100-4.286 2.143 2.143 0 000 4.286z" fill="#9A76FF"/></svg><svg fill="none" viewBox="0 0 20 14" id="mail" xmlns="http://www.w3.org/2000/svg"><path d="M13.258 7.104L20 11.444V2.581l-6.742 4.523zM0 2.581v8.863l6.742-4.34L0 2.581zM18.75 0H1.25C.626 0 .131.473.038 1.083L10 7.766l9.962-6.683C19.87.473 19.374 0 18.75 0zM12.113 7.873l-1.77 1.186a.617.617 0 01-.687 0L7.887 7.872.04 12.926C.136 13.53.629 14 1.25 14h17.5c.621 0 1.114-.47 1.21-1.074l-7.848-5.053z" fill="#9A76FF"/></svg><svg fill="none" viewBox="0 0 15 14" id="pencil" xmlns="http://www.w3.org/2000/svg"><path d="M8.655 2.34L.944 10.052a.307.307 0 00-.08.14l-.855 3.43A.305.305 0 00.303 14c.025 0 .05-.003.074-.01l3.43-.854a.304.304 0 00.141-.08l7.712-7.711L8.655 2.34zM13.57 1.288L12.712.43c-.574-.574-1.574-.573-2.147 0L9.514 1.482l3.005 3.004 1.051-1.051c.287-.286.445-.668.445-1.073 0-.406-.158-.787-.445-1.074z" fill="#9A76FF"/></svg><svg fill="none" viewBox="0 0 7 4" id="pirple_arrow" xmlns="http://www.w3.org/2000/svg"><path d="M3.914 3.835a.602.602 0 01-.828 0L.22 1.185C-.223.776.048 0 .633 0h5.734c.585 0 .856.776.413 1.185l-2.866 2.65z" fill="#8159F4"/></svg><svg fill="none" viewBox="0 0 20 20" id="profile" xmlns="http://www.w3.org/2000/svg"><mask id="aza" maskUnits="userSpaceOnUse" x="0" y="0" width="20" height="20"><circle cx="10" cy="10" r="10" fill="#C4C4C4"/></mask><g mask="url(#aza)" fill="#9A76FF"><path d="M9.919 4c-2.29 0-4.151 1.893-4.151 4.219 0 2.326 1.862 4.219 4.15 4.219 2.29 0 4.152-1.893 4.152-4.22C14.07 5.894 12.208 4 9.92 4zM15.084 15.194c-1.136-1.173-2.643-1.819-4.243-1.819H8.996c-1.599 0-3.106.646-4.242 1.819A6.2 6.2 0 003 19.53c0 .26.207.469.461.469h12.916c.254 0 .46-.21.46-.469a6.2 6.2 0 00-1.753-4.337z"/></g><circle cx="10" cy="10" r="9.5" stroke="#9A76FF"/></svg><svg fill="none" viewBox="0 0 20 20" id="settings" xmlns="http://www.w3.org/2000/svg"><path fill-rule="evenodd" clip-rule="evenodd" d="M10.345 8.67V7.585a.333.333 0 00-.1-.24.337.337 0 00-.245-.105.345.345 0 00-.345.345V8.67c.225-.066.465-.066.69 0z" fill="#9A76FF"/><path d="M10 10.69a.69.69 0 100-1.38.69.69 0 000 1.38z" fill="#9A76FF"/><path d="M14.483 9.655h.328a4.8 4.8 0 00-1.166-2.812l-.231.23a.345.345 0 11-.488-.487l.23-.23a4.8 4.8 0 00-2.811-1.167v.328a.345.345 0 11-.69 0v-.328a4.8 4.8 0 00-2.812 1.166l.23.231a.345.345 0 11-.487.488l-.231-.23a4.8 4.8 0 00-1.166 2.811h.328a.345.345 0 010 .69h-.328a4.8 4.8 0 001.166 2.812l.231-.23a.345.345 0 01.488.487l-.231.231a4.8 4.8 0 002.812 1.166v-.328a.345.345 0 01.69 0v.328a4.8 4.8 0 002.812-1.166l-.23-.231a.345.345 0 01.487-.488l.23.231a4.8 4.8 0 001.167-2.812h-.328a.345.345 0 110-.69zm-1.738 1.13a.345.345 0 01-.426.236l-1.135-.325a1.374 1.374 0 11-2.219-1.599V7.586a1.035 1.035 0 112.07 0v1.511c.22.25.343.57.344.903 0 .011-.003.022-.003.034l1.133.325a.345.345 0 01.236.426z" fill="#9A76FF"/><path d="M19.951 9.062a.616.616 0 00-.517-.53l-1.33-.218a8.226 8.226 0 00-1.181-2.85l.784-1.096a.62.62 0 00-.006-.744 8.197 8.197 0 00-.631-.694 9.308 9.308 0 00-.694-.631.62.62 0 00-.744-.006l-1.096.784a8.226 8.226 0 00-2.85-1.182L11.47.567a.616.616 0 00-.531-.517 8.817 8.817 0 00-1.876 0 .616.616 0 00-.53.517l-.218 1.328a8.226 8.226 0 00-2.85 1.182l-1.096-.784a.62.62 0 00-.744.006c-.242.199-.473.41-.694.631-.223.22-.434.45-.631.694a.62.62 0 00-.006.744l.784 1.097a8.226 8.226 0 00-1.182 2.849L.567 8.53a.616.616 0 00-.517.531 8.817 8.817 0 000 1.876.623.623 0 00.517.53l1.328.218a8.226 8.226 0 001.182 2.85l-.784 1.096a.619.619 0 00.006.744c.198.242.41.473.631.694.225.225.456.431.694.631a.62.62 0 00.744.007l1.096-.785c.867.57 1.834.97 2.85 1.182l.217 1.328a.616.616 0 00.531.517 8.813 8.813 0 001.876 0 .616.616 0 00.53-.517l.218-1.328a8.226 8.226 0 002.85-1.182l1.096.784a.62.62 0 00.744-.006c.237-.2.469-.406.694-.631.222-.22.433-.452.631-.694a.619.619 0 00.006-.744l-.784-1.096a8.228 8.228 0 001.182-2.85l1.328-.217c.27-.044.48-.26.517-.531a8.814 8.814 0 000-1.876h.001zM10 16.898A6.897 6.897 0 1116.897 10 6.905 6.905 0 0110 16.898z" fill="#9A76FF"/><path d="M10 3.792A6.208 6.208 0 1016.208 10 6.215 6.215 0 0010 3.792zm0 11.726A5.518 5.518 0 1115.518 10 5.525 5.525 0 0110 15.518z" fill="#9A76FF"/></svg><svg fill="none" viewBox="0 0 20 20" id="settings2" xmlns="http://www.w3.org/2000/svg"><path d="M12.527 13.333a5.372 5.372 0 00.001-1.66l1.391-1.08a.834.834 0 00.21-1.073l-.898-1.54a.85.85 0 00-1.044-.357l-1.64.654A5.319 5.319 0 009.1 7.449l-.25-1.733A.843.843 0 008.018 5H6.223a.843.843 0 00-.834.716L5.14 7.45a5.337 5.337 0 00-1.44.827l-1.648-.654a.851.851 0 00-1.043.357L.112 9.52a.83.83 0 00.211 1.073l1.39 1.074a5.368 5.368 0 00-.001 1.66L.32 14.407a.834.834 0 00-.21 1.073l.897 1.54a.852.852 0 001.044.357l1.64-.654c.447.357.933.635 1.447.829l.25 1.733c.06.407.417.715.834.715h1.794a.843.843 0 00.834-.716L9.1 17.55a5.337 5.337 0 001.44-.828l1.648.655c.388.154.835 0 1.043-.357l.897-1.54a.83.83 0 00-.211-1.073l-1.39-1.074zM7.12 15.417c-1.625 0-2.946-1.309-2.946-2.917 0-1.608 1.321-2.917 2.946-2.917 1.625 0 2.946 1.309 2.946 2.917 0 1.608-1.321 2.917-2.946 2.917zM19.075 4.558c.016-.13.04-.257.04-.391 0-.135-.024-.262-.04-.391l.758-.568a.414.414 0 00.11-.541l-.68-1.167a.423.423 0 00-.528-.176l-.873.364a3.135 3.135 0 00-.69-.405l-.116-.918A.42.42 0 0016.64 0h-1.361a.42.42 0 00-.418.365l-.116.917c-.25.104-.477.246-.69.406l-.872-.364a.423.423 0 00-.529.176l-.68 1.167a.415.415 0 00.11.54l.759.569c-.017.129-.04.256-.04.39 0 .135.023.262.04.391l-.76.569a.414.414 0 00-.11.54l.681 1.167a.423.423 0 00.528.176l.873-.365c.213.161.44.303.69.406l.116.918a.42.42 0 00.417.365h1.361a.42.42 0 00.418-.365l.116-.917c.25-.104.477-.246.69-.406l.872.364a.423.423 0 00.529-.176l.68-1.166a.415.415 0 00-.11-.541l-.758-.569zm-3.117 1.275c-.93 0-1.684-.745-1.684-1.666 0-.921.754-1.667 1.684-1.667.93 0 1.683.746 1.683 1.667 0 .92-.753 1.666-1.683 1.666z" fill="#9A76FF"/></svg><svg fill="none" viewBox="0 0 20 20" id="settings3" xmlns="http://www.w3.org/2000/svg"><path d="M12.527 13.333a5.372 5.372 0 00.001-1.66l1.391-1.08a.834.834 0 00.21-1.073l-.898-1.54a.85.85 0 00-1.044-.357l-1.64.654A5.319 5.319 0 009.1 7.449l-.25-1.733A.843.843 0 008.018 5H6.223a.843.843 0 00-.834.716L5.14 7.45a5.337 5.337 0 00-1.44.827l-1.648-.654a.851.851 0 00-1.043.357L.112 9.52a.83.83 0 00.211 1.073l1.39 1.074a5.368 5.368 0 00-.001 1.66L.32 14.407a.834.834 0 00-.21 1.073l.897 1.54a.852.852 0 001.044.357l1.64-.654c.447.357.933.635 1.447.829l.25 1.733c.06.407.417.715.834.715h1.794a.843.843 0 00.834-.716L9.1 17.55a5.337 5.337 0 001.44-.828l1.648.655c.388.154.835 0 1.043-.357l.897-1.54a.83.83 0 00-.211-1.073l-1.39-1.074zM7.12 15.417c-1.625 0-2.946-1.309-2.946-2.917 0-1.608 1.321-2.917 2.946-2.917 1.625 0 2.946 1.309 2.946 2.917 0 1.608-1.321 2.917-2.946 2.917zM19.075 4.558c.016-.13.04-.257.04-.391 0-.135-.024-.262-.04-.391l.758-.568a.414.414 0 00.11-.541l-.68-1.167a.423.423 0 00-.528-.176l-.873.364a3.135 3.135 0 00-.69-.405l-.116-.918A.42.42 0 0016.64 0h-1.361a.42.42 0 00-.418.365l-.116.917c-.25.104-.477.246-.69.406l-.872-.364a.423.423 0 00-.529.176l-.68 1.167a.415.415 0 00.11.54l.759.569c-.017.129-.04.256-.04.39 0 .135.023.262.04.391l-.76.569a.414.414 0 00-.11.54l.681 1.167a.423.423 0 00.528.176l.873-.365c.213.161.44.303.69.406l.116.918a.42.42 0 00.417.365h1.361a.42.42 0 00.418-.365l.116-.917c.25-.104.477-.246.69-.406l.872.364a.423.423 0 00.529-.176l.68-1.166a.415.415 0 00-.11-.541l-.758-.569zm-3.117 1.275c-.93 0-1.684-.745-1.684-1.666 0-.921.754-1.667 1.684-1.667.93 0 1.683.746 1.683 1.667 0 .92-.753 1.666-1.683 1.666z" fill="#9A76FF"/></svg><svg fill="none" viewBox="0 0 15 14" id="telegram" xmlns="http://www.w3.org/2000/svg"><path d="M.259 6.374l3.668 1.828a.47.47 0 00.445-.014L7.637 6.29 5.661 8.04a.47.47 0 00-.158.351v4.266c0 .45.574.64.843.282l1.586-2.108 3.921 2.233c.275.158.628 0 .691-.315L14.99.562a.469.469 0 00-.63-.528L.298 5.518a.47.47 0 00-.04.856zM13.903 1.22l-2.15 10.71-3.715-2.116a.47.47 0 00-.607.126l-.99 1.316V8.604l5.343-4.735c.424-.374-.063-1.04-.546-.756L4.12 7.25 1.624 6.007 13.903 1.22z" fill="#fff"/></svg><svg fill="none" viewBox="0 0 16 16" id="telegram-2x" xmlns="http://www.w3.org/2000/svg"><g clip-path="url(#beclip0)"><path d="M.649 7.347l3.668 1.828a.47.47 0 00.445-.014l3.265-1.899-1.976 1.752a.47.47 0 00-.158.351v4.266c0 .45.574.639.844.281l1.585-2.108 3.921 2.233c.275.159.628 0 .692-.315L15.38 1.536a.469.469 0 00-.63-.529L.688 6.491a.47.47 0 00-.039.856zM14.293 2.19l-2.15 10.71-3.715-2.115a.47.47 0 00-.607.125l-.99 1.317V9.576l5.344-4.735c.423-.375-.064-1.04-.547-.757L4.51 8.224 2.015 6.98l12.278-4.789z" fill="#fff"/></g><defs><clipPath id="beclip0"><path fill="#fff" transform="translate(.39 .35)" d="M0 0h15v15H0z"/></clipPath></defs></svg><svg fill="none" viewBox="0 0 20 20" id="trash" xmlns="http://www.w3.org/2000/svg"><path d="M19.167 3.333h-4.35l-.274-1.096A2.947 2.947 0 0011.678 0H8.322C6.964 0 5.786.92 5.457 2.237l-.274 1.096H.833A.833.833 0 10.833 5h.879l.701 12.638A2.503 2.503 0 004.911 20h10.178a2.503 2.503 0 002.498-2.362L18.288 5h.879a.833.833 0 100-1.667zM7.073 2.641a1.286 1.286 0 011.249-.974h3.356c.592 0 1.104.4 1.249.974l.172.692H6.901l.172-.692zM7.5 15.833a.833.833 0 11-1.667 0V7.5a.833.833 0 111.667 0v8.333zm3.333 0a.833.833 0 11-1.666 0V7.5a.833.833 0 111.666 0v8.333zm3.334 0a.833.833 0 11-1.667 0V7.5a.833.833 0 111.667 0v8.333z" fill="#9A76FF"/></svg><svg fill="none" viewBox="0 0 14 16" id="viber" xmlns="http://www.w3.org/2000/svg"><path d="M13.61 8.691c.447-3.767-.215-6.145-1.41-7.22-1.93-1.837-8.442-2.11-10.75.081C.414 2.624.05 4.197.01 6.145c-.04 1.948-.088 5.597 3.313 6.587h.003l-.003 1.512s-.023.613.368.736c.448.145.65-.14 2.042-1.802 2.327.202 4.115-.26 4.318-.328.47-.158 3.13-.51 3.56-4.159zM5.96 12.114s-1.473 1.837-1.93 2.314c-.15.155-.315.14-.313-.167l.011-2.51c-2.883-.826-2.713-3.934-2.681-5.56.03-1.626.328-2.957 1.206-3.854C4.278.439 9.989.863 11.444 2.23c1.779 1.577 1.145 6.032 1.15 6.184-.366 3.046-2.521 3.24-2.918 3.372-.169.056-1.74.46-3.715.328z" fill="#fff"/><path d="M6.776 2.694c-.24 0-.24.375 0 .378 1.867.014 3.405 1.315 3.422 3.702 0 .252.368.249.365-.003-.02-2.572-1.7-4.063-3.787-4.077z" fill="#fff"/><path d="M9.232 6.379c-.006.248.363.26.366.008.03-1.418-.844-2.586-2.487-2.709-.24-.018-.266.36-.026.378 1.425.108 2.176 1.08 2.147 2.323zM8.838 7.992c-.308-.18-.623-.068-.753.108l-.272.352c-.138.178-.396.155-.396.155-1.884-.498-2.388-2.47-2.388-2.47s-.023-.267.15-.41l.34-.28c.17-.136.277-.46.104-.78-.462-.836-.773-1.124-.931-1.345-.166-.208-.416-.255-.676-.115H4.01c-.54.317-1.132.908-.943 1.518.323.642.917 2.69 2.81 4.238.889.732 2.296 1.482 2.894 1.655l.005.009c.59.196 1.162-.42 1.467-.976v-.004c.136-.27.09-.525-.107-.692a7.366 7.366 0 00-1.298-.963z" fill="#fff"/><path d="M7.368 5.073c.6.035.892.349.923.993.012.252.377.234.366-.017-.04-.842-.479-1.31-1.269-1.354-.24-.015-.263.364-.02.378z" fill="#fff"/></svg><svg fill="none" viewBox="0 0 15 15" id="whatsapp" xmlns="http://www.w3.org/2000/svg"><path d="M12.771 2.178A7.434 7.434 0 007.492 0c-1.99 0-3.868.773-5.286 2.176A7.359 7.359 0 000 7.431v.003c0 1.199.315 2.407.913 3.51L.02 15l4.102-.933c1.04.524 2.198.8 3.368.8h.003c1.99 0 3.867-.773 5.286-2.177a7.35 7.35 0 002.207-5.254c0-1.967-.786-3.834-2.215-5.258zM7.492 13.696H7.49c-1.05 0-2.09-.264-3.008-.762l-.194-.105-2.728.62.593-2.693-.114-.197C1.47 9.58 1.17 8.5 1.17 7.434 1.173 3.982 4.009 1.17 7.492 1.17c1.683 0 3.265.653 4.453 1.837 1.206 1.202 1.87 2.774 1.87 4.428-.002 3.452-2.838 6.26-6.323 6.26z" fill="#fff"/><path d="M5.454 4.156h-.329a.63.63 0 00-.457.214c-.157.17-.6.584-.6 1.424s.615 1.653.7 1.767c.086.114 1.186 1.894 2.928 2.579 1.448.569 1.742.455 2.056.427.315-.028 1.014-.413 1.157-.812.143-.399.143-.74.1-.812-.043-.071-.157-.114-.328-.2-.172-.085-1.012-.505-1.169-.562-.157-.057-.271-.086-.385.085-.115.171-.451.566-.551.68-.1.114-.2.129-.372.043-.171-.086-.718-.27-1.372-.851-.51-.453-.863-1.03-.963-1.201-.1-.171-.011-.264.075-.349.077-.076.18-.18.267-.28.085-.1.11-.172.167-.286.057-.114.028-.213-.015-.299-.042-.085-.371-.93-.524-1.268-.128-.284-.263-.294-.385-.299z" fill="#fff"/></svg></svg>